<!-- icon666.com - MILLIONS vector ICONS FREE --><svg version="1.1" id="Capa_1" xmlns="http://www.w3.org/2000/svg" xmlns:xlink="http://www.w3.org/1999/xlink" x="0px" y="0px" viewBox="0 0 179.006 179.006" style="enable-background:new 0 0 179.006 179.006;" xml:space="preserve"><g><g><g><g><path style="fill: rgb(61, 89, 199);" d="M52.571,121.981v13.056c0,3.568,2.655,6.468,5.895,6.468s5.883-2.9,5.883-6.468v-13.056H52.571z" fill="#010002"></path><path style="fill: rgb(61, 89, 199);" d="M100.777,121.981v39.31c0,3.556,2.655,6.468,5.895,6.468c3.24,0,5.895-2.912,5.895-6.468v-39.31 C112.568,121.981,100.777,121.981,100.777,121.981z" fill="#010002"></path><path style="fill: rgb(61, 89, 199);" d="M84.715,121.981v50.563c0,3.562,2.649,6.462,5.889,6.462c3.234,0,5.883-2.9,5.883-6.462v-50.563 H84.715z" fill="#010002"></path><path style="fill: rgb(61, 89, 199);" d="M68.64,121.981v36.631c0,3.556,2.655,6.468,5.895,6.468c3.228,0,5.877-2.912,5.877-6.468v-36.631 H68.64z" fill="#010002"></path></g><g><polygon style="fill: rgb(61, 89, 199);" points="41.908,57.903 41.908,60.892 128.756,60.892 128.756,112.487 131.751,112.487 131.751,57.903 " fill="#010002"></polygon><polygon style="fill: rgb(61, 89, 199);" points="47.899,51.906 47.899,54.901 134.747,54.901 134.747,106.509 137.742,106.509 137.742,51.906 " fill="#010002"></polygon><g><path style="fill: rgb(61, 89, 199);" d="M35.918,63.887v54.585h89.843V63.887H35.918z M80.842,111.36 c-11.152,0-20.186-9.04-20.186-20.174c0-11.152,9.034-20.18,20.186-20.18c11.14,0,20.174,9.028,20.174,20.18 C101.022,102.32,91.988,111.36,80.842,111.36z" fill="#010002"></path><path style="fill: rgb(61, 89, 199);" d="M87.221,90.846c-0.967-0.662-2.81-1.378-5.537-2.136v-8.551 c1.617,0.048,2.798,0.668,3.532,1.862c0.4,0.644,0.632,1.414,0.722,2.303h3.067c-0.06-1.987-0.698-3.592-1.945-4.791 c-1.247-1.211-3.043-1.891-5.364-2.065v-2.297h-1.665v2.339c-2.363,0.018-4.171,0.746-5.478,2.172 c-1.307,1.432-1.969,3.031-1.969,4.815c0,1.987,0.621,3.55,1.832,4.66c1.211,1.122,3.097,1.921,5.615,2.399v9.571 c-1.969-0.161-3.335-0.901-4.057-2.232c-0.418-0.734-0.674-1.903-0.77-3.52h-3.109c0,2.029,0.328,3.616,1.002,4.809 c1.211,2.184,3.52,3.383,6.922,3.604v3.401h1.665v-3.401c2.112-0.233,3.741-0.71,4.851-1.432 c2.029-1.319,3.055-3.532,3.055-6.635C89.596,93.572,88.802,91.938,87.221,90.846z M80.019,88.375 c-1.307-0.269-2.351-0.722-3.121-1.366c-0.77-0.656-1.146-1.569-1.146-2.721c0-0.961,0.328-1.874,0.979-2.757 c0.656-0.877,1.76-1.349,3.3-1.402L80.019,88.375L80.019,88.375z M85.83,99.026c-0.77,1.366-2.136,2.106-4.141,2.19v-9.231 c1.462,0.394,2.506,0.817,3.127,1.259c1.074,0.764,1.617,1.874,1.617,3.335C86.427,97.505,86.23,98.328,85.83,99.026z" fill="#010002"></path></g></g></g><path style="fill: rgb(61, 89, 199);" d="M136.62,36.72H106.1h-7.154V0H52.571v48.397h84.133c3.52-0.036,6.385-2.643,6.385-5.836 C143.089,39.357,140.177,36.72,136.62,36.72z" fill="#010002"></path></g></g></svg>